<svg xmlns="http://www.w3.org/2000/svg" xmlns:xlink="http://www.w3.org/1999/xlink" width="16px" height="16px" viewBox="0 0 16 16" version="1.1">
<g id="surface1">
<path style=" stroke:none;fill-rule:nonzero;fill:#1e4076;fill-opacity:1;" d="M 12.746094 6.34375 L 12.746094 4.746094 C 12.746094 2.128906 10.617188 0 8 0 C 5.382812 0 3.253906 2.128906 3.253906 4.746094 L 5.222656 4.746094 C 5.222656 3.214844 6.46875 1.972656 8 1.972656 C 9.53125 1.972656 10.777344 3.214844 10.777344 4.746094 L 10.777344 6.34375 L 1.714844 6.34375 L 1.714844 16 L 14.285156 16 L 14.285156 6.34375 Z M 8.785156 12.34375 L 8.785156 14.464844 L 7.214844 14.464844 L 7.214844 12.34375 C 6.851562 12.09375 6.613281 11.675781 6.613281 11.199219 C 6.613281 10.429688 7.234375 9.808594 8 9.808594 C 8.765625 9.808594 9.390625 10.429688 9.390625 11.199219 C 9.390625 11.675781 9.148438 12.09375 8.785156 12.34375 Z M 8.785156 12.34375 "/>
</g>
</svg>